<mxfile host="65bd71144e" pages="4">
    <diagram id="C5RBs43oDa-KdzZeNtuy" name="Main">
        <mxGraphModel dx="670" dy="576" grid="1" gridSize="10" guides="1" tooltips="1" connect="1" arrows="1" fold="1" page="1" pageScale="1" pageWidth="827" pageHeight="1169" math="0" shadow="0">
            <root>
                <mxCell id="WIyWlLk6GJQsqaUBKTNV-0"/>
                <mxCell id="WIyWlLk6GJQsqaUBKTNV-1" parent="WIyWlLk6GJQsqaUBKTNV-0"/>
                <mxCell id="jBerjMbeBjNwyvv4E9lE-8" value="" style="edgeStyle=orthogonalEdgeStyle;rounded=0;orthogonalLoop=1;jettySize=auto;html=1;" parent="WIyWlLk6GJQsqaUBKTNV-1" source="jBerjMbeBjNwyvv4E9lE-0" target="jBerjMbeBjNwyvv4E9lE-7" edge="1">
                    <mxGeometry relative="1" as="geometry"/>
                </mxCell>
                <mxCell id="jBerjMbeBjNwyvv4E9lE-0" value="Start" style="ellipse;whiteSpace=wrap;html=1;" parent="WIyWlLk6GJQsqaUBKTNV-1" vertex="1">
                    <mxGeometry x="335" y="20" width="90" height="40" as="geometry"/>
                </mxCell>
                <mxCell id="CsntfWBOfArbJTsr9I_s-9" value="" style="edgeStyle=orthogonalEdgeStyle;rounded=0;orthogonalLoop=1;jettySize=auto;html=1;" parent="WIyWlLk6GJQsqaUBKTNV-1" source="jBerjMbeBjNwyvv4E9lE-1" target="CsntfWBOfArbJTsr9I_s-8" edge="1">
                    <mxGeometry relative="1" as="geometry"/>
                </mxCell>
                <mxCell id="jBerjMbeBjNwyvv4E9lE-1" value="Call TotDaysAbsent&lt;br&gt;passing in numOfEmployees&lt;br&gt;set result equal to&amp;nbsp;&lt;br&gt;variable totalDaysAbsent" style="shape=process;whiteSpace=wrap;html=1;backgroundOutline=1;" parent="WIyWlLk6GJQsqaUBKTNV-1" vertex="1">
                    <mxGeometry x="277.5" y="530" width="205" height="70" as="geometry"/>
                </mxCell>
                <mxCell id="CsntfWBOfArbJTsr9I_s-20" value="" style="edgeStyle=orthogonalEdgeStyle;rounded=0;orthogonalLoop=1;jettySize=auto;html=1;" parent="WIyWlLk6GJQsqaUBKTNV-1" source="jBerjMbeBjNwyvv4E9lE-7" target="CsntfWBOfArbJTsr9I_s-18" edge="1">
                    <mxGeometry relative="1" as="geometry"/>
                </mxCell>
                <mxCell id="jBerjMbeBjNwyvv4E9lE-7" value="Create global ofstream txt file" style="rounded=0;whiteSpace=wrap;html=1;" parent="WIyWlLk6GJQsqaUBKTNV-1" vertex="1">
                    <mxGeometry x="330" y="90" width="100" height="40" as="geometry"/>
                </mxCell>
                <mxCell id="CsntfWBOfArbJTsr9I_s-2" value="" style="edgeStyle=orthogonalEdgeStyle;rounded=0;orthogonalLoop=1;jettySize=auto;html=1;" parent="WIyWlLk6GJQsqaUBKTNV-1" source="jBerjMbeBjNwyvv4E9lE-9" target="CsntfWBOfArbJTsr9I_s-0" edge="1">
                    <mxGeometry relative="1" as="geometry"/>
                </mxCell>
                <mxCell id="CsntfWBOfArbJTsr9I_s-23" style="edgeStyle=orthogonalEdgeStyle;rounded=0;orthogonalLoop=1;jettySize=auto;html=1;exitX=0.5;exitY=0;exitDx=0;exitDy=0;" parent="WIyWlLk6GJQsqaUBKTNV-1" source="jBerjMbeBjNwyvv4E9lE-9" edge="1">
                    <mxGeometry relative="1" as="geometry">
                        <mxPoint x="379.9411764705883" y="260" as="targetPoint"/>
                    </mxGeometry>
                </mxCell>
                <mxCell id="jBerjMbeBjNwyvv4E9lE-9" value="Initialize int variable numOfEmployees" style="whiteSpace=wrap;html=1;" parent="WIyWlLk6GJQsqaUBKTNV-1" vertex="1">
                    <mxGeometry x="325" y="260" width="110" height="40" as="geometry"/>
                </mxCell>
                <mxCell id="CsntfWBOfArbJTsr9I_s-4" value="" style="edgeStyle=orthogonalEdgeStyle;rounded=0;orthogonalLoop=1;jettySize=auto;html=1;" parent="WIyWlLk6GJQsqaUBKTNV-1" source="CsntfWBOfArbJTsr9I_s-0" target="CsntfWBOfArbJTsr9I_s-3" edge="1">
                    <mxGeometry relative="1" as="geometry"/>
                </mxCell>
                <mxCell id="CsntfWBOfArbJTsr9I_s-0" value="Call numOfEmployees,&lt;br&gt;set result equal to&amp;nbsp;&lt;br&gt;variable numOfEmployees" style="shape=process;whiteSpace=wrap;html=1;backgroundOutline=1;" parent="WIyWlLk6GJQsqaUBKTNV-1" vertex="1">
                    <mxGeometry x="295" y="340" width="170" height="70" as="geometry"/>
                </mxCell>
                <mxCell id="CsntfWBOfArbJTsr9I_s-5" value="" style="edgeStyle=orthogonalEdgeStyle;rounded=0;orthogonalLoop=1;jettySize=auto;html=1;" parent="WIyWlLk6GJQsqaUBKTNV-1" source="CsntfWBOfArbJTsr9I_s-3" target="jBerjMbeBjNwyvv4E9lE-1" edge="1">
                    <mxGeometry relative="1" as="geometry"/>
                </mxCell>
                <mxCell id="CsntfWBOfArbJTsr9I_s-3" value="Initialize int variable totalDaysAbsent" style="whiteSpace=wrap;html=1;" parent="WIyWlLk6GJQsqaUBKTNV-1" vertex="1">
                    <mxGeometry x="325" y="450" width="110" height="40" as="geometry"/>
                </mxCell>
                <mxCell id="CsntfWBOfArbJTsr9I_s-15" value="" style="edgeStyle=orthogonalEdgeStyle;rounded=0;orthogonalLoop=1;jettySize=auto;html=1;" parent="WIyWlLk6GJQsqaUBKTNV-1" source="CsntfWBOfArbJTsr9I_s-6" target="CsntfWBOfArbJTsr9I_s-14" edge="1">
                    <mxGeometry relative="1" as="geometry"/>
                </mxCell>
                <mxCell id="CsntfWBOfArbJTsr9I_s-6" value="Call AverageAbsent&lt;br&gt;passing in numOfEmployees, and totalDaysAbsent&lt;br&gt;set return value equal to variable AverageDaysAbsent" style="shape=process;whiteSpace=wrap;html=1;backgroundOutline=1;" parent="WIyWlLk6GJQsqaUBKTNV-1" vertex="1">
                    <mxGeometry x="258.75" y="720" width="242.5" height="70" as="geometry"/>
                </mxCell>
                <mxCell id="CsntfWBOfArbJTsr9I_s-10" value="" style="edgeStyle=orthogonalEdgeStyle;rounded=0;orthogonalLoop=1;jettySize=auto;html=1;" parent="WIyWlLk6GJQsqaUBKTNV-1" source="CsntfWBOfArbJTsr9I_s-8" target="CsntfWBOfArbJTsr9I_s-6" edge="1">
                    <mxGeometry relative="1" as="geometry"/>
                </mxCell>
                <mxCell id="CsntfWBOfArbJTsr9I_s-8" value="Initialize double variable AverageDaysAbsent" style="whiteSpace=wrap;html=1;" parent="WIyWlLk6GJQsqaUBKTNV-1" vertex="1">
                    <mxGeometry x="307.5" y="640" width="145" height="50" as="geometry"/>
                </mxCell>
                <mxCell id="CsntfWBOfArbJTsr9I_s-14" value="Write to file,&amp;nbsp;&lt;br&gt;numOfEmployees&lt;br&gt;totalDaysAbsent&lt;br&gt;AverageDaysAbsent&lt;br&gt;users Name&lt;br&gt;Programmer name&lt;br&gt;Due Date" style="shape=parallelogram;perimeter=parallelogramPerimeter;whiteSpace=wrap;html=1;fixedSize=1;" parent="WIyWlLk6GJQsqaUBKTNV-1" vertex="1">
                    <mxGeometry x="270" y="820" width="220" height="100" as="geometry"/>
                </mxCell>
                <mxCell id="CsntfWBOfArbJTsr9I_s-22" value="" style="edgeStyle=orthogonalEdgeStyle;rounded=0;orthogonalLoop=1;jettySize=auto;html=1;" parent="WIyWlLk6GJQsqaUBKTNV-1" source="CsntfWBOfArbJTsr9I_s-18" target="jBerjMbeBjNwyvv4E9lE-9" edge="1">
                    <mxGeometry relative="1" as="geometry"/>
                </mxCell>
                <mxCell id="CsntfWBOfArbJTsr9I_s-18" value="Read in users name" style="shape=parallelogram;perimeter=parallelogramPerimeter;whiteSpace=wrap;html=1;fixedSize=1;" parent="WIyWlLk6GJQsqaUBKTNV-1" vertex="1">
                    <mxGeometry x="305" y="170" width="150" height="40" as="geometry"/>
                </mxCell>
            </root>
        </mxGraphModel>
    </diagram>
    <diagram id="nAiYikdfLs8eUUpn4An1" name="NumOfEmployees  ">
        <mxGraphModel dx="670" dy="576" grid="1" gridSize="10" guides="1" tooltips="1" connect="1" arrows="1" fold="1" page="1" pageScale="1" pageWidth="850" pageHeight="1100" math="0" shadow="0">
            <root>
                <mxCell id="4gnSEabfv-dZ1ZokPuY1-0"/>
                <mxCell id="4gnSEabfv-dZ1ZokPuY1-1" parent="4gnSEabfv-dZ1ZokPuY1-0"/>
                <mxCell id="Bfc0KXZ_JcE3jfp2NYVj-4" value="" style="edgeStyle=orthogonalEdgeStyle;rounded=0;orthogonalLoop=1;jettySize=auto;html=1;" parent="4gnSEabfv-dZ1ZokPuY1-1" source="Bfc0KXZ_JcE3jfp2NYVj-0" target="Bfc0KXZ_JcE3jfp2NYVj-3" edge="1">
                    <mxGeometry relative="1" as="geometry"/>
                </mxCell>
                <mxCell id="Bfc0KXZ_JcE3jfp2NYVj-0" value="Start function" style="ellipse;whiteSpace=wrap;html=1;" parent="4gnSEabfv-dZ1ZokPuY1-1" vertex="1">
                    <mxGeometry x="320" y="10" width="160" height="50" as="geometry"/>
                </mxCell>
                <mxCell id="Bfc0KXZ_JcE3jfp2NYVj-11" value="" style="edgeStyle=orthogonalEdgeStyle;rounded=0;orthogonalLoop=1;jettySize=auto;html=1;" parent="4gnSEabfv-dZ1ZokPuY1-1" source="Bfc0KXZ_JcE3jfp2NYVj-3" target="Bfc0KXZ_JcE3jfp2NYVj-10" edge="1">
                    <mxGeometry relative="1" as="geometry"/>
                </mxCell>
                <mxCell id="Bfc0KXZ_JcE3jfp2NYVj-3" value="Ask user for number of employees in company" style="shape=parallelogram;perimeter=parallelogramPerimeter;whiteSpace=wrap;html=1;fixedSize=1;" parent="4gnSEabfv-dZ1ZokPuY1-1" vertex="1">
                    <mxGeometry x="320" y="130" width="160" height="55" as="geometry"/>
                </mxCell>
                <mxCell id="Bfc0KXZ_JcE3jfp2NYVj-12" style="edgeStyle=orthogonalEdgeStyle;rounded=0;orthogonalLoop=1;jettySize=auto;html=1;" parent="4gnSEabfv-dZ1ZokPuY1-1" source="Bfc0KXZ_JcE3jfp2NYVj-10" edge="1">
                    <mxGeometry relative="1" as="geometry">
                        <mxPoint x="400" y="100" as="targetPoint"/>
                        <Array as="points">
                            <mxPoint x="500" y="260"/>
                            <mxPoint x="500" y="100"/>
                        </Array>
                    </mxGeometry>
                </mxCell>
                <mxCell id="Bfc0KXZ_JcE3jfp2NYVj-13" value="YES" style="edgeLabel;html=1;align=center;verticalAlign=middle;resizable=0;points=[];" parent="Bfc0KXZ_JcE3jfp2NYVj-12" vertex="1" connectable="0">
                    <mxGeometry x="-0.7969" y="1" relative="1" as="geometry">
                        <mxPoint as="offset"/>
                    </mxGeometry>
                </mxCell>
                <mxCell id="Bfc0KXZ_JcE3jfp2NYVj-15" value="" style="edgeStyle=orthogonalEdgeStyle;rounded=0;orthogonalLoop=1;jettySize=auto;html=1;" parent="4gnSEabfv-dZ1ZokPuY1-1" source="Bfc0KXZ_JcE3jfp2NYVj-10" target="Bfc0KXZ_JcE3jfp2NYVj-14" edge="1">
                    <mxGeometry relative="1" as="geometry"/>
                </mxCell>
                <mxCell id="Bfc0KXZ_JcE3jfp2NYVj-10" value="&lt;font style=&quot;font-size: 9px&quot;&gt;numOfEmployees&lt;br&gt;&amp;nbsp;&amp;lt; 1?&lt;/font&gt;" style="rhombus;whiteSpace=wrap;html=1;" parent="4gnSEabfv-dZ1ZokPuY1-1" vertex="1">
                    <mxGeometry x="355" y="220" width="90" height="80" as="geometry"/>
                </mxCell>
                <mxCell id="7SRxrMuJX_R6TtEKhyTI-1" value="" style="edgeStyle=orthogonalEdgeStyle;rounded=0;orthogonalLoop=1;jettySize=auto;html=1;" parent="4gnSEabfv-dZ1ZokPuY1-1" source="Bfc0KXZ_JcE3jfp2NYVj-14" edge="1">
                    <mxGeometry relative="1" as="geometry">
                        <mxPoint x="400" y="430" as="targetPoint"/>
                    </mxGeometry>
                </mxCell>
                <mxCell id="Bfc0KXZ_JcE3jfp2NYVj-14" value="return number of employees at company (int value)" style="whiteSpace=wrap;html=1;" parent="4gnSEabfv-dZ1ZokPuY1-1" vertex="1">
                    <mxGeometry x="340" y="330" width="120" height="60" as="geometry"/>
                </mxCell>
                <mxCell id="7SRxrMuJX_R6TtEKhyTI-2" value="End function" style="ellipse;whiteSpace=wrap;html=1;" parent="4gnSEabfv-dZ1ZokPuY1-1" vertex="1">
                    <mxGeometry x="320" y="430" width="160" height="50" as="geometry"/>
                </mxCell>
            </root>
        </mxGraphModel>
    </diagram>
    <diagram id="VK-apPZ0s9D9q9gK9ToX" name="TotDaysAbsent">
        <mxGraphModel dx="670" dy="576" grid="1" gridSize="10" guides="1" tooltips="1" connect="1" arrows="1" fold="1" page="1" pageScale="1" pageWidth="850" pageHeight="1100" math="0" shadow="0">
            <root>
                <mxCell id="IfVJROmZycejusgU4x2t-0"/>
                <mxCell id="IfVJROmZycejusgU4x2t-1" parent="IfVJROmZycejusgU4x2t-0"/>
                <mxCell id="B5EIaZn7ikogy5d2WOWW-0" value="" style="edgeStyle=orthogonalEdgeStyle;rounded=0;orthogonalLoop=1;jettySize=auto;html=1;exitX=1;exitY=0.5;exitDx=0;exitDy=0;" parent="IfVJROmZycejusgU4x2t-1" source="tjLYpgA3kN3H3bpBPcwF-0" target="B5EIaZn7ikogy5d2WOWW-3" edge="1">
                    <mxGeometry relative="1" as="geometry">
                        <mxPoint x="480" y="280" as="sourcePoint"/>
                        <Array as="points">
                            <mxPoint x="450" y="280"/>
                        </Array>
                    </mxGeometry>
                </mxCell>
                <mxCell id="B5EIaZn7ikogy5d2WOWW-2" value="" style="edgeStyle=orthogonalEdgeStyle;rounded=0;orthogonalLoop=1;jettySize=auto;html=1;" parent="IfVJROmZycejusgU4x2t-1" source="B5EIaZn7ikogy5d2WOWW-3" target="B5EIaZn7ikogy5d2WOWW-7" edge="1">
                    <mxGeometry relative="1" as="geometry"/>
                </mxCell>
                <mxCell id="B5EIaZn7ikogy5d2WOWW-3" value="Ask user for number of days missed in year" style="shape=parallelogram;perimeter=parallelogramPerimeter;whiteSpace=wrap;html=1;fixedSize=1;" parent="IfVJROmZycejusgU4x2t-1" vertex="1">
                    <mxGeometry x="360" y="330" width="180" height="55" as="geometry"/>
                </mxCell>
                <mxCell id="B5EIaZn7ikogy5d2WOWW-4" style="edgeStyle=orthogonalEdgeStyle;rounded=0;orthogonalLoop=1;jettySize=auto;html=1;" parent="IfVJROmZycejusgU4x2t-1" source="B5EIaZn7ikogy5d2WOWW-7" edge="1">
                    <mxGeometry relative="1" as="geometry">
                        <mxPoint x="450" y="300" as="targetPoint"/>
                        <Array as="points">
                            <mxPoint x="610" y="470"/>
                            <mxPoint x="610" y="300"/>
                        </Array>
                    </mxGeometry>
                </mxCell>
                <mxCell id="B5EIaZn7ikogy5d2WOWW-5" value="YES" style="edgeLabel;html=1;align=center;verticalAlign=middle;resizable=0;points=[];" parent="B5EIaZn7ikogy5d2WOWW-4" vertex="1" connectable="0">
                    <mxGeometry x="-0.7969" y="1" relative="1" as="geometry">
                        <mxPoint as="offset"/>
                    </mxGeometry>
                </mxCell>
                <mxCell id="4MSj7L0zgOEbxTEZG2_U-8" style="edgeStyle=orthogonalEdgeStyle;rounded=0;orthogonalLoop=1;jettySize=auto;html=1;entryX=0.5;entryY=1;entryDx=0;entryDy=0;" parent="IfVJROmZycejusgU4x2t-1" source="B5EIaZn7ikogy5d2WOWW-7" target="4MSj7L0zgOEbxTEZG2_U-6" edge="1">
                    <mxGeometry relative="1" as="geometry">
                        <Array as="points">
                            <mxPoint x="450" y="530"/>
                            <mxPoint x="705" y="530"/>
                        </Array>
                    </mxGeometry>
                </mxCell>
                <mxCell id="B5EIaZn7ikogy5d2WOWW-7" value="&lt;font style=&quot;font-size: 9px&quot;&gt;daysMissed&lt;br&gt;&amp;nbsp;&amp;lt; 0?&lt;/font&gt;" style="rhombus;whiteSpace=wrap;html=1;" parent="IfVJROmZycejusgU4x2t-1" vertex="1">
                    <mxGeometry x="405" y="430" width="90" height="80" as="geometry"/>
                </mxCell>
                <mxCell id="4MSj7L0zgOEbxTEZG2_U-13" value="" style="edgeStyle=orthogonalEdgeStyle;rounded=0;orthogonalLoop=1;jettySize=auto;html=1;" parent="IfVJROmZycejusgU4x2t-1" source="B5EIaZn7ikogy5d2WOWW-9" target="4MSj7L0zgOEbxTEZG2_U-12" edge="1">
                    <mxGeometry relative="1" as="geometry"/>
                </mxCell>
                <mxCell id="B5EIaZn7ikogy5d2WOWW-9" value="Start function&lt;br&gt;(param numOfEmployees)" style="ellipse;whiteSpace=wrap;html=1;" parent="IfVJROmZycejusgU4x2t-1" vertex="1">
                    <mxGeometry x="370" y="20" width="140" height="80" as="geometry"/>
                </mxCell>
                <mxCell id="tjLYpgA3kN3H3bpBPcwF-1" value="" style="edgeStyle=orthogonalEdgeStyle;rounded=0;orthogonalLoop=1;jettySize=auto;html=1;" parent="IfVJROmZycejusgU4x2t-1" source="B5EIaZn7ikogy5d2WOWW-10" target="tjLYpgA3kN3H3bpBPcwF-0" edge="1">
                    <mxGeometry relative="1" as="geometry"/>
                </mxCell>
                <mxCell id="4MSj7L0zgOEbxTEZG2_U-11" value="" style="edgeStyle=orthogonalEdgeStyle;rounded=0;orthogonalLoop=1;jettySize=auto;html=1;" parent="IfVJROmZycejusgU4x2t-1" source="B5EIaZn7ikogy5d2WOWW-10" target="4MSj7L0zgOEbxTEZG2_U-10" edge="1">
                    <mxGeometry relative="1" as="geometry"/>
                </mxCell>
                <mxCell id="B5EIaZn7ikogy5d2WOWW-10" value="&lt;font style=&quot;font-size: 12px&quot;&gt;i &amp;lt; numOfEmployees&lt;/font&gt;" style="rhombus;whiteSpace=wrap;html=1;" parent="IfVJROmZycejusgU4x2t-1" vertex="1">
                    <mxGeometry x="70" y="230" width="140" height="100" as="geometry"/>
                </mxCell>
                <mxCell id="tjLYpgA3kN3H3bpBPcwF-0" value="Read&amp;nbsp;&lt;br&gt;employee id &lt;br&gt;number" style="shape=parallelogram;perimeter=parallelogramPerimeter;whiteSpace=wrap;html=1;fixedSize=1;" parent="IfVJROmZycejusgU4x2t-1" vertex="1">
                    <mxGeometry x="250" y="250" width="120" height="60" as="geometry"/>
                </mxCell>
                <mxCell id="4MSj7L0zgOEbxTEZG2_U-18" style="edgeStyle=orthogonalEdgeStyle;rounded=0;orthogonalLoop=1;jettySize=auto;html=1;" parent="IfVJROmZycejusgU4x2t-1" source="4MSj7L0zgOEbxTEZG2_U-0" edge="1">
                    <mxGeometry relative="1" as="geometry">
                        <mxPoint x="140" y="190" as="targetPoint"/>
                    </mxGeometry>
                </mxCell>
                <mxCell id="4MSj7L0zgOEbxTEZG2_U-0" value="add 1 to i" style="whiteSpace=wrap;html=1;" parent="IfVJROmZycejusgU4x2t-1" vertex="1">
                    <mxGeometry x="480" y="160" width="120" height="60" as="geometry"/>
                </mxCell>
                <mxCell id="4MSj7L0zgOEbxTEZG2_U-16" value="" style="edgeStyle=orthogonalEdgeStyle;rounded=0;orthogonalLoop=1;jettySize=auto;html=1;" parent="IfVJROmZycejusgU4x2t-1" source="4MSj7L0zgOEbxTEZG2_U-6" target="4MSj7L0zgOEbxTEZG2_U-15" edge="1">
                    <mxGeometry relative="1" as="geometry"/>
                </mxCell>
                <mxCell id="4MSj7L0zgOEbxTEZG2_U-6" value="Write information&lt;br&gt;&amp;nbsp;to outfile" style="shape=parallelogram;perimeter=parallelogramPerimeter;whiteSpace=wrap;html=1;fixedSize=1;" parent="IfVJROmZycejusgU4x2t-1" vertex="1">
                    <mxGeometry x="640" y="370" width="130" height="60" as="geometry"/>
                </mxCell>
                <mxCell id="4MSj7L0zgOEbxTEZG2_U-20" value="" style="edgeStyle=orthogonalEdgeStyle;rounded=0;orthogonalLoop=1;jettySize=auto;html=1;" parent="IfVJROmZycejusgU4x2t-1" source="4MSj7L0zgOEbxTEZG2_U-10" target="4MSj7L0zgOEbxTEZG2_U-19" edge="1">
                    <mxGeometry relative="1" as="geometry"/>
                </mxCell>
                <mxCell id="4MSj7L0zgOEbxTEZG2_U-10" value="Return totalDaysAbsent (int value)" style="whiteSpace=wrap;html=1;" parent="IfVJROmZycejusgU4x2t-1" vertex="1">
                    <mxGeometry x="80" y="430" width="120" height="60" as="geometry"/>
                </mxCell>
                <mxCell id="4MSj7L0zgOEbxTEZG2_U-14" style="edgeStyle=orthogonalEdgeStyle;rounded=0;orthogonalLoop=1;jettySize=auto;html=1;entryX=0.5;entryY=0;entryDx=0;entryDy=0;" parent="IfVJROmZycejusgU4x2t-1" source="4MSj7L0zgOEbxTEZG2_U-12" target="B5EIaZn7ikogy5d2WOWW-10" edge="1">
                    <mxGeometry relative="1" as="geometry"/>
                </mxCell>
                <mxCell id="4MSj7L0zgOEbxTEZG2_U-12" value="Initialize int totalDaysAbsent" style="whiteSpace=wrap;html=1;" parent="IfVJROmZycejusgU4x2t-1" vertex="1">
                    <mxGeometry x="80" y="30" width="120" height="60" as="geometry"/>
                </mxCell>
                <mxCell id="4MSj7L0zgOEbxTEZG2_U-17" value="" style="edgeStyle=orthogonalEdgeStyle;rounded=0;orthogonalLoop=1;jettySize=auto;html=1;" parent="IfVJROmZycejusgU4x2t-1" source="4MSj7L0zgOEbxTEZG2_U-15" target="4MSj7L0zgOEbxTEZG2_U-0" edge="1">
                    <mxGeometry relative="1" as="geometry">
                        <Array as="points">
                            <mxPoint x="705" y="190"/>
                        </Array>
                    </mxGeometry>
                </mxCell>
                <mxCell id="4MSj7L0zgOEbxTEZG2_U-15" value="&lt;span&gt;add daysMissed to&amp;nbsp; totalDaysAbsent&amp;nbsp;&lt;/span&gt;" style="whiteSpace=wrap;html=1;" parent="IfVJROmZycejusgU4x2t-1" vertex="1">
                    <mxGeometry x="645" y="260" width="120" height="60" as="geometry"/>
                </mxCell>
                <mxCell id="4MSj7L0zgOEbxTEZG2_U-19" value="End function&lt;br&gt;(param numOfEmployees)" style="ellipse;whiteSpace=wrap;html=1;" parent="IfVJROmZycejusgU4x2t-1" vertex="1">
                    <mxGeometry x="70" y="550" width="140" height="80" as="geometry"/>
                </mxCell>
            </root>
        </mxGraphModel>
    </diagram>
    <diagram id="V7cFmbgTRi7rgxLMxmJE" name="AverageAbsent">
        <mxGraphModel dx="670" dy="576" grid="1" gridSize="10" guides="1" tooltips="1" connect="1" arrows="1" fold="1" page="1" pageScale="1" pageWidth="850" pageHeight="1100" math="0" shadow="0">
            <root>
                <mxCell id="L_08KmaRS-TWdEk8Weuq-0"/>
                <mxCell id="L_08KmaRS-TWdEk8Weuq-1" parent="L_08KmaRS-TWdEk8Weuq-0"/>
                <mxCell id="CRT_FwqRxxu8o5dRLAJl-0" value="" style="edgeStyle=orthogonalEdgeStyle;rounded=0;orthogonalLoop=1;jettySize=auto;html=1;" parent="L_08KmaRS-TWdEk8Weuq-1" source="CRT_FwqRxxu8o5dRLAJl-1" edge="1">
                    <mxGeometry relative="1" as="geometry">
                        <mxPoint x="400" y="130" as="targetPoint"/>
                    </mxGeometry>
                </mxCell>
                <mxCell id="CRT_FwqRxxu8o5dRLAJl-1" value="Start function&lt;br&gt;(param numOfEmployees,&lt;br&gt;totalDaysAbsent)" style="ellipse;whiteSpace=wrap;html=1;" parent="L_08KmaRS-TWdEk8Weuq-1" vertex="1">
                    <mxGeometry x="320" y="10" width="160" height="60" as="geometry"/>
                </mxCell>
                <mxCell id="CRT_FwqRxxu8o5dRLAJl-8" value="" style="edgeStyle=orthogonalEdgeStyle;rounded=0;orthogonalLoop=1;jettySize=auto;html=1;" parent="L_08KmaRS-TWdEk8Weuq-1" source="CRT_FwqRxxu8o5dRLAJl-9" edge="1">
                    <mxGeometry relative="1" as="geometry">
                        <mxPoint x="400" y="230" as="targetPoint"/>
                    </mxGeometry>
                </mxCell>
                <mxCell id="CRT_FwqRxxu8o5dRLAJl-9" value="return totalDaysAbsent / numOfEmployees at company (double value)" style="whiteSpace=wrap;html=1;" parent="L_08KmaRS-TWdEk8Weuq-1" vertex="1">
                    <mxGeometry x="255" y="130" width="290" height="60" as="geometry"/>
                </mxCell>
                <mxCell id="CRT_FwqRxxu8o5dRLAJl-10" value="End function" style="ellipse;whiteSpace=wrap;html=1;" parent="L_08KmaRS-TWdEk8Weuq-1" vertex="1">
                    <mxGeometry x="320" y="230" width="160" height="50" as="geometry"/>
                </mxCell>
            </root>
        </mxGraphModel>
    </diagram>
</mxfile>